<svg width="512" height="512" viewBox="0 0 512 512" fill="none" xmlns="http://www.w3.org/2000/svg">
<path fill-rule="evenodd" clip-rule="evenodd" d="M476 0.516472C475.312 0.759472 473.681 1.24147 472.375 1.58797C471.069 1.93497 470 2.39397 470 2.60897C470 2.82397 469.55 2.99997 469 2.99997C468.45 2.99997 468 3.22497 468 3.49997C468 3.77497 467.55 3.99997 467 3.99997C466.45 3.99997 466 4.17647 466 4.39197C466 4.60797 465.293 5.20197 464.428 5.71247C462.642 6.76797 458 11.3595 458 12.0715C458 12.33 457.55 13.025 457 13.615C456.45 14.2055 456 14.9835 456 15.3445C456 15.705 455.775 16 455.5 16C455.225 16 455 16.45 455 17C455 17.55 454.824 18 454.609 18C454.394 18 453.932 19.0685 453.582 20.375C453.232 21.6815 452.715 23.5375 452.434 24.5C451.608 27.3245 452.464 38.61 453.555 39.284C453.8 39.4355 454 40.108 454 40.7795C454 41.451 454.225 42 454.5 42C454.775 42 455 42.45 455 43C455 43.55 455.225 44 455.5 44C455.775 44 456 44.2405 456 44.535C456 45.2935 458.935 49.467 460.734 51.2655C462.533 53.0645 466.706 56 467.465 56C467.759 56 468 56.225 468 56.5C468 56.775 468.45 57 469 57C469.55 57 470 57.225 470 57.5C470 57.775 470.549 58 471.22 58C471.892 58 472.564 58.2 472.716 58.445C473.183 59.2015 476.522 59.626 482 59.626C487.477 59.626 490.816 59.2015 491.284 58.445C491.435 58.2 492.108 58 492.779 58C493.451 58 494 57.775 494 57.5C494 57.225 494.45 57 495 57C495.55 57 496 56.775 496 56.5C496 56.225 496.45 56 497 56C497.55 56 498 55.8235 498 55.608C498 55.392 498.707 54.798 499.571 54.2875C501.358 53.232 506 48.6405 506 47.9285C506 47.67 506.45 46.975 507 46.385C507.55 45.7945 508 45.0165 508 44.6555C508 44.295 508.225 44 508.5 44C508.775 44 509 43.55 509 43C509 42.45 509.225 42 509.5 42C509.775 42 510 41.451 510 40.7795C510 40.108 510.225 39.42 510.5 39.25C510.775 39.08 511 38.18 511 37.25C511 36.32 511.225 35.42 511.5 35.25C512.138 34.8555 512.154 26.314 511.52 24.2855C511.256 23.441 510.756 21.6815 510.41 20.375C510.064 19.0685 509.606 18 509.391 18C509.176 18 509 17.55 509 17C509 16.45 508.775 16 508.5 16C508.225 16 508 15.705 508 15.3445C508 14.9835 507.55 14.2055 507 13.615C506.45 13.025 506 12.322 506 12.0535C506 11.347 500.548 5.99997 499.828 5.99997C499.494 5.99997 498.896 5.54997 498.5 4.99997C498.103 4.44997 497.379 3.99997 496.889 3.99997C496.4 3.99997 496 3.77497 496 3.49997C496 3.22497 495.55 2.99997 495 2.99997C494.45 2.99997 494 2.77497 494 2.49997C494 2.22497 493.451 1.99997 492.779 1.99997C492.108 1.99997 491.435 1.79997 491.284 1.55497C490.627 0.49247 478.417 -0.337528 476 0.516472ZM485.851 15.5625C488.096 16.465 489.731 17.229 490 17.502C490.137 17.6415 491.094 18.3845 492.125 19.1535C493.156 19.922 494 20.877 494 21.2755C494 21.674 494.225 22 494.5 22C494.775 22 495 22.45 495 23C495 23.55 495.17 24 495.378 24C495.994 24 497 27.815 496.992 30.117C496.988 31.29 496.643 33.15 496.224 34.25C495.806 35.35 495.333 36.6435 495.173 37.125C495.014 37.6065 494.684 38 494.441 38C494.199 38 494 38.326 494 38.7245C494 39.123 493.156 40.078 492.125 40.8465C491.094 41.6155 490.137 42.3585 490 42.498C489.862 42.6375 489.075 43.0585 488.25 43.434C487.425 43.8095 486.359 44.3155 485.882 44.5585C484.757 45.1305 479.243 45.1305 478.118 44.5585C477.64 44.3155 476.575 43.809 475.75 43.4335C474.925 43.0575 474.025 42.5845 473.75 42.3825C471.339 40.6105 470 39.2975 470 38.7055C470 38.3175 469.801 38 469.558 38C469.315 38 468.986 37.6065 468.826 37.125C468.666 36.6435 468.193 35.35 467.775 34.25C467.357 33.15 467.015 31.2375 467.015 30C467.015 28.7625 467.357 26.85 467.775 25.75C468.193 24.65 468.666 23.3565 468.826 22.875C468.986 22.3935 469.315 22 469.558 22C469.801 22 470 21.6825 470 21.2945C470 20.7025 471.339 19.3895 473.75 17.6175C474.25 17.2495 475.657 16.58 478 15.594C479.682 14.886 484.124 14.868 485.851 15.5625ZM306.75 21.596C305.925 21.8655 304.462 22.3065 303.5 22.576C300.63 23.38 295.948 25.543 295 26.503C294.862 26.6425 293.724 27.529 292.47 28.4735C291.217 29.4185 289.418 31.217 288.473 32.4705C287.529 33.724 286.628 34.8625 286.472 35C286.189 35.25 283.222 41.361 282.467 43.25C281.651 45.293 281.355 47.888 281.355 53C281.355 58.112 281.651 60.707 282.467 62.75C283.771 66.0135 286.321 70.866 287.095 71.5585C287.593 72.0035 288.001 72.566 288.002 72.8085C288.005 73.4425 290.694 76.2215 292.88 77.851C293.908 78.6175 294.862 79.372 295 79.5275C295.25 79.811 301.363 82.7785 303.25 83.5325C307.13 85.0825 318.707 85.0935 322.75 83.55C324.197 82.9975 330.705 79.8035 331 79.501C331.137 79.36 332.127 78.59 333.198 77.7905C335.575 76.0175 338 73.527 338 72.8595C338 72.589 338.407 72.0035 338.904 71.5585C339.679 70.866 342.228 66.0135 343.532 62.75C344.75 59.7025 345.347 50.1905 344.505 47.25C344.19 46.15 343.706 44.4625 343.43 43.5C342.692 40.923 339.908 35.373 338.886 34.4415C338.399 33.9965 338 33.411 338 33.1405C338 32.473 335.575 29.9825 333.198 28.2095C332.127 27.41 331.137 26.6315 331 26.4805C330.428 25.8505 324.584 23.1625 322.5 22.571C321.262 22.2195 319.559 21.7225 318.714 21.466C316.747 20.869 308.709 20.9565 306.75 21.596ZM219.5 34.481C219.087 34.7135 217.737 35.2005 216.5 35.564C215.262 35.927 213.814 36.624 213.28 37.112C212.747 37.6005 212.104 38 211.851 38C211.598 38 210.158 39.2535 208.65 40.7855C205.734 43.749 203 48.3385 203 50.2715C203 50.9145 202.775 51.58 202.5 51.75C201.868 52.1405 201.84 60.217 202.467 61.382C202.723 61.8595 203.222 63.3185 203.576 64.625C203.929 65.9315 204.394 67 204.609 67C204.824 67 205 67.316 205 67.7025C205 68.4875 211.105 75 211.841 75C212.1 75 212.747 75.3995 213.28 75.888C213.814 76.376 215.262 77.073 216.5 77.4365C217.737 77.8 219.14 78.3005 219.618 78.5485C220.801 79.1635 228.865 79.123 229.25 78.5C229.42 78.225 230.207 78 231 78C231.792 78 232.58 77.775 232.75 77.5C232.92 77.225 233.495 77 234.029 77C234.563 77 235 76.775 235 76.5C235 76.225 235.326 76 235.725 76C236.124 76 238.016 74.4565 239.928 72.5705C243.316 69.2295 246 64.7845 246 62.5145C246 61.989 246.225 61.42 246.5 61.25C246.775 61.08 247 58.9425 247 56.5C247 54.0575 246.775 51.92 246.5 51.75C246.225 51.58 246 50.7925 246 50C246 49.2075 245.775 48.42 245.5 48.25C245.225 48.08 245 47.5045 245 46.9705C245 46.4365 244.775 46 244.5 46C244.225 46 244 45.6795 244 45.2885C244 44.351 237.408 37.697 236.053 37.267C235.474 37.083 235 36.723 235 36.4665C235 36.21 234.563 36 234.029 36C233.495 36 232.92 35.775 232.75 35.5C232.58 35.225 231.792 35 231 35C230.207 35 229.42 34.775 229.25 34.5C228.878 33.898 220.564 33.882 219.5 34.481ZM316.75 36.5C316.92 36.775 317.72 37 318.529 37C319.338 37 320 37.225 320 37.5C320 37.775 320.4 38 320.889 38C321.379 38 322.103 38.45 322.5 39C322.896 39.55 323.458 40 323.749 40C324.327 40 326 41.78 326 42.3955C326 42.6065 326.45 43.1035 327 43.5C327.55 43.8965 328 44.621 328 45.1105C328 45.5995 328.225 46 328.5 46C328.775 46 329 46.6615 329 47.4705C329 48.2795 329.225 49.08 329.5 49.25C329.775 49.42 330 51.233 330 53.2795C330 55.4265 329.788 57 329.5 57C329.225 57 329 57.675 329 58.5C329 59.325 328.775 60 328.5 60C328.225 60 328 60.3675 328 60.8165C328 61.2655 327.587 61.9965 327.083 62.4415C326.579 62.886 325.766 63.869 325.276 64.625C324.786 65.381 324.123 66 323.803 66C323.482 66 322.896 66.45 322.5 67C322.103 67.55 321.392 68 320.919 68C320.446 68 319.92 68.225 319.75 68.5C319.58 68.775 318.905 69 318.25 69C317.595 69 316.92 69.225 316.75 69.5C316.58 69.775 314.767 70 312.72 70C310.573 70 309 69.7885 309 69.5C309 69.225 308.325 69 307.5 69C306.675 69 306 68.775 306 68.5C306 68.225 305.641 68 305.203 68C304.167 68 298 61.833 298 60.7965C298 60.3585 297.775 60 297.5 60C297.225 60 297 59.325 297 58.5C297 57.675 296.758 57 296.462 57C296.103 57 296.003 55.705 296.161 53.125C296.442 48.5525 296.942 46 297.556 46C297.8 46 298 45.705 298 45.3445C298 44.9835 298.45 44.2055 299 43.615C299.55 43.025 300 42.3505 300 42.117C300 41.883 300.894 41.03 301.988 40.221C303.081 39.412 303.981 38.581 303.988 38.375C303.994 38.169 304.45 38 305 38C305.55 38 306 37.775 306 37.5C306 37.225 306.675 37 307.5 37C308.325 37 309 36.775 309 36.5C309 36.2115 310.573 36 312.72 36C314.767 36 316.58 36.225 316.75 36.5ZM227 49.5C227 49.775 227.347 50 227.772 50C228.773 50 231 52.227 231 53.2275C231 53.6525 231.225 54 231.5 54C231.775 54 232 55.125 232 56.5C232 57.875 231.775 59 231.5 59C231.225 59 231 59.3475 231 59.7725C231 60.773 228.773 63 227.772 63C227.347 63 227 63.225 227 63.5C227 63.775 225.875 64 224.5 64C223.125 64 222 63.775 222 63.5C222 63.225 221.652 63 221.227 63C220.227 63 218 60.773 218 59.7725C218 59.3475 217.775 59 217.5 59C217.225 59 217 57.875 217 56.5C217 55.125 217.225 54 217.5 54C217.775 54 218 53.6525 218 53.2275C218 52.227 220.227 50 221.227 50C221.652 50 222 49.775 222 49.5C222 49.225 223.125 49 224.5 49C225.875 49 227 49.225 227 49.5ZM400.25 56.481C399.7 56.728 398.294 56.9455 397.125 56.965C395.956 56.984 395 57.225 395 57.5C395 57.775 394.325 58 393.5 58C392.675 58 392 58.225 392 58.5C392 58.775 391.684 59 391.297 59C390.381 59 386.523 61.004 385.281 62.125C384.748 62.606 384.116 63 383.878 63C383.235 63 377.697 68.7625 376.671 70.4985C376.183 71.3245 375.608 72 375.392 72C375.176 72 375 72.45 375 73C375 73.55 374.775 74 374.5 74C374.225 74 374 74.45 374 75C374 75.55 373.775 76 373.5 76C373.225 76 373 76.549 373 77.2205C373 77.892 372.775 78.58 372.5 78.75C372.225 78.92 372 79.7205 372 80.5295C372 81.3385 371.775 82 371.5 82C371.189 82 371 84.8335 371 89.5C371 94.1665 371.189 97 371.5 97C371.775 97 372 97.4535 372 98.008C372 99.416 373.164 103 373.621 103C373.83 103 374 103.45 374 104C374 104.55 374.225 105 374.5 105C374.775 105 375 105.45 375 106C375 106.55 375.21 107 375.466 107C375.723 107 376.077 107.456 376.254 108.014C376.686 109.376 382.696 115.413 385.5 117.303C388.099 119.055 392.158 121 393.215 121C393.614 121 394.065 121.201 394.217 121.447C394.862 122.49 408.236 123.463 409.165 122.534C409.459 122.24 410.541 122 411.57 122C412.599 122 413.58 121.775 413.75 121.5C413.92 121.225 414.385 121 414.785 121C415.841 121 419.902 119.054 422.481 117.312C425.243 115.447 430.505 110.204 431.459 108.366C431.849 107.615 432.356 107 432.584 107C432.813 107 433 106.55 433 106C433 105.45 433.225 105 433.5 105C433.775 105 434 104.55 434 104C434 103.45 434.225 103 434.5 103C434.775 103 435 102.451 435 101.779C435 101.108 435.225 100.42 435.5 100.25C435.775 100.08 436 99.3245 436 98.5705C436 97.8165 436.237 96.9625 436.528 96.672C436.869 96.3305 436.977 93.7765 436.832 89.447C436.596 82.387 436.181 79.171 435.445 78.716C435.2 78.5645 435 77.892 435 77.2205C435 76.549 434.775 76 434.5 76C434.225 76 434 75.55 434 75C434 74.45 433.775 74 433.5 74C433.225 74 433 73.5995 433 73.1105C433 72.621 432.55 71.8965 432 71.5C431.45 71.1035 431 70.5175 431 70.1975C431 69.384 425.042 63.4005 423.375 62.5405C422.618 62.1505 422 61.644 422 61.4155C422 61.187 421.55 61 421 61C420.45 61 419.998 60.8315 419.996 60.625C419.991 60.176 417.57 59 416.65 59C416.292 59 416 58.775 416 58.5C416 58.225 415.325 58 414.5 58C413.675 58 413 57.7965 413 57.5485C413 56.703 401.837 55.7685 400.25 56.481ZM408.229 71.79C409.317 71.979 410.917 72.5325 411.785 73.02C412.653 73.507 413.894 74.2085 414.543 74.578C415.931 75.3685 418.5 77.926 418.5 78.517C418.5 78.7435 418.781 79.226 419.125 79.5895C419.469 79.9525 420.057 80.925 420.433 81.75C420.809 82.575 421.315 83.6405 421.558 84.118C422.146 85.2735 422.126 93.7795 421.532 94.882C421.276 95.3595 420.771 96.481 420.41 97.375C420.05 98.269 419.586 99 419.378 99C419.17 99 419 99.36 419 99.7995C419 100.745 414.64 105 413.67 105C413.301 105 413 105.225 413 105.5C413 105.775 412.55 106 412 106C411.45 106 411 106.225 411 106.5C411 106.775 410.338 107 409.529 107C408.72 107 407.92 107.225 407.75 107.5C407.58 107.775 405.892 108 404 108C402.107 108 400.42 107.775 400.25 107.5C400.08 107.225 399.279 107 398.47 107C397.661 107 397 106.775 397 106.5C397 106.225 396.55 106 396 106C395.45 106 395 105.775 395 105.5C395 105.225 394.698 105 394.329 105C392.567 105 387 98.0175 387 95.807C387 95.363 386.775 95 386.5 95C386.197 95 386 92.8335 386 89.5C386 86.1665 386.197 84 386.5 84C386.775 84 387 83.7075 387 83.3495C387 82.43 388.176 80.0085 388.625 80.004C388.831 80.002 389 79.7065 389 79.3475C389 78.4595 391.935 75.407 393.625 74.538C394.381 74.149 395 73.644 395 73.4155C395 73.187 395.436 73 395.97 73C396.504 73 397.08 72.775 397.25 72.5C397.42 72.225 398.32 72 399.25 72C400.18 72 401.092 71.755 401.277 71.4555C401.606 70.923 403.855 71.031 408.229 71.79ZM262.27 84.468C262.089 84.7605 261.388 85 260.713 85C260.038 85 259.095 85.1985 258.618 85.4415C258.14 85.6845 257.075 86.184 256.25 86.5515C252.336 88.2945 246 93.721 246 95.3295C246 95.6985 245.81 96 245.578 96C244.941 96 242.412 101.386 241.705 104.25C241.225 106.191 241.225 114.808 241.705 116.75C242.412 119.614 244.941 125 245.578 125C245.81 125 246 125.323 246 125.717C246 126.651 251.348 132 252.282 132C252.677 132 253 132.189 253 132.421C253 132.653 254.069 133.353 255.375 133.976C256.681 134.599 258.14 135.31 258.618 135.554C259.095 135.799 260.007 136 260.643 136C261.279 136 262.041 136.241 262.336 136.536C263.281 137.481 275.622 136.516 276.284 135.445C276.435 135.2 277.108 135 277.779 135C278.451 135 279 134.775 279 134.5C279 134.225 279.295 134 279.655 134C280.016 134 280.794 133.55 281.385 133C281.975 132.45 282.657 132 282.899 132C283.658 132 287.735 127.855 289.292 125.5C292.771 120.239 293.665 117.172 293.665 110.5C293.665 105.959 293.404 103.951 292.525 101.75C291.459 99.0765 289.798 96 289.421 96C289.189 96 289 95.677 289 95.2825C289 94.3485 283.651 89 282.717 89C282.323 89 282 88.8105 282 88.5785C282 87.9325 276.555 85.385 273.75 84.719C271.061 84.081 262.623 83.896 262.27 84.468ZM175.834 94.333C175.651 94.516 172.969 94.8535 169.875 95.083C163.901 95.5265 159.142 96.1105 154.25 97.001C152.6 97.3015 150.237 97.671 149 97.822C147.762 97.973 146.536 98.3 146.275 98.5485C146.014 98.797 144.958 99 143.929 99C142.9 99 141.92 99.225 141.75 99.5C141.58 99.775 140.68 100 139.75 100C138.82 100 137.92 100.225 137.75 100.5C137.58 100.775 136.667 101 135.72 101C134.774 101 134 101.225 134 101.5C134 101.775 133.434 102 132.743 102C132.052 102 131.095 102.203 130.618 102.451C130.14 102.699 128.737 103.188 127.5 103.538C126.262 103.888 125.036 104.36 124.775 104.587C124.513 104.814 123.782 105 123.15 105C122.517 105 122 105.225 122 105.5C122 105.775 121.451 106 120.779 106C120.108 106 119.447 106.18 119.311 106.401C119.175 106.621 117.924 107.112 116.531 107.491C115.139 107.87 114 108.365 114 108.59C114 108.815 113.715 109 113.367 109C112.116 109 98.4395 115.823 98.0835 116.625C97.9915 116.831 97.4855 117 96.9585 117C96.4315 117 96 117.197 96 117.439C96 117.681 95.325 118.158 94.5 118.5C93.675 118.841 93 119.319 93 119.56C93 119.802 92.705 120 92.3445 120C91.9835 120 91.2055 120.45 90.615 121C90.025 121.55 89.3515 122 89.1185 122C88.339 122 85 125.375 85 126.163C85 126.591 84.775 127.08 84.5 127.25C83.664 127.766 83.9395 130.359 85.0425 132.36C86.241 134.532 87.8615 135.973 89.125 135.989C89.606 135.995 90 136.225 90 136.5C90 138.129 96.471 135.71 99.694 132.875C100.241 132.394 100.983 132 101.344 132C101.705 132 102.002 131.831 102.004 131.625C102.006 131.418 102.512 131.002 103.129 130.699C106.138 129.222 108.767 127.712 108.916 127.375C109.008 127.168 109.514 127 110.041 127C110.568 127 111 126.775 111 126.5C111 126.225 111.45 126 112 126C112.55 126 113 125.775 113 125.5C113 125.225 113.316 125 113.702 125C114.308 125 115.9 124.31 119.618 122.437C120.095 122.197 120.827 122 121.243 122C121.659 122 122 121.775 122 121.5C122 121.225 122.453 121 123.007 121C123.56 121 124.517 120.74 125.132 120.422C127.539 119.177 128.021 119 128.993 119C129.547 119 130 118.775 130 118.5C130 118.225 130.675 118 131.5 118C132.325 118 133 117.775 133 117.5C133 117.225 133.661 117 134.47 117C135.279 117 136.08 116.775 136.25 116.5C136.42 116.225 137.207 116 138 116C138.792 116 139.564 115.8 139.716 115.555C139.989 115.113 141.8 114.708 145.875 114.176C147.043 114.024 148 113.719 148 113.5C148 113.121 149.418 112.858 154.875 112.224C156.181 112.072 157.7 111.748 158.25 111.505C158.8 111.261 160.712 110.921 162.5 110.748C164.287 110.575 167.887 110.214 170.5 109.945C173.112 109.676 182.303 109.339 190.924 109.196L206.598 108.935L208.299 107.234C209.234 106.298 210 105.188 210 104.766C210 104.345 210.225 104 210.5 104C212.045 104 209.772 96.389 208.054 95.8075C207.611 95.658 206.35 95.1935 205.25 94.7755C203.641 94.1635 200.604 94.0135 189.708 94.0075C182.26 94.0035 176.017 94.1495 175.834 94.333ZM330.777 97.456C330.592 97.7555 329.667 98 328.72 98C327.774 98 327 98.176 327 98.391C327 98.606 326.01 99.074 324.801 99.431C323.592 99.788 322.139 100.512 321.572 101.04C321.005 101.568 320.32 102 320.048 102C319.405 102 313 108.405 313 109.048C313 109.32 312.568 110.005 312.04 110.572C311.512 111.139 310.788 112.592 310.431 113.801C310.074 115.01 309.606 116 309.391 116C309.176 116 309 116.774 309 117.72C309 118.667 308.775 119.58 308.5 119.75C308.221 119.922 308 122.245 308 125C308 127.754 308.221 130.077 308.5 130.25C308.775 130.42 309 131.333 309 132.279C309 133.226 309.225 134 309.5 134C309.775 134 310 134.428 310 134.952C310 136.087 312.01 140 312.593 140C312.816 140 313 140.325 313 140.722C313 141.525 319.27 148 320.048 148C320.32 148 321.005 148.432 321.572 148.96C322.139 149.488 323.592 150.212 324.801 150.569C326.01 150.926 327 151.394 327 151.609C327 151.824 327.742 152 328.65 152C329.557 152 330.54 152.24 330.834 152.534C331.731 153.431 345 152.513 345 151.554C345 151.369 345.989 150.926 347.198 150.569C348.408 150.212 349.861 149.488 350.428 148.96C350.994 148.432 351.71 148 352.017 148C352.679 148 359 141.592 359 140.921C359 140.666 359.432 139.994 359.96 139.428C360.488 138.861 361.212 137.408 361.569 136.198C361.926 134.989 362.394 134 362.609 134C362.824 134 363 133.257 363 132.35C363 131.442 363.24 130.459 363.534 130.165C364.431 129.269 363.513 116 362.554 116C362.369 116 361.926 115.01 361.569 113.801C361.212 112.592 360.488 111.139 359.96 110.572C359.432 110.005 359 109.32 359 109.048C359 108.27 352.525 102 351.722 102C351.325 102 351 101.816 351 101.593C351 101.01 347.087 99 345.952 99C345.428 99 345 98.7995 345 98.5545C345 97.529 331.382 96.477 330.777 97.456ZM271.008 99.6215C272.103 99.9635 273 100.413 273 100.621C273 100.83 273.269 101 273.597 101C274.419 101 277 103.536 277 104.343C277 104.704 277.17 105 277.378 105C277.912 105 279 108.688 279 110.5C279 112.311 277.912 116 277.378 116C277.17 116 277 116.269 277 116.597C277 117.419 274.463 120 273.656 120C273.295 120 273 120.17 273 120.378C273 121.549 264.92 122.584 264.25 121.5C264.08 121.225 263.504 121 262.97 121C262.436 121 262 120.775 262 120.5C262 120.225 261.704 120 261.343 120C260.536 120 258 117.419 258 116.597C258 116.269 257.83 116 257.621 116C257.076 116 256 112.295 256 110.418C256 108.924 256.93 105.56 257.498 105C257.637 104.862 258.07 104.131 258.46 103.375C258.85 102.619 259.426 102 259.74 102C260.054 102 260.794 101.55 261.385 101C261.975 100.45 262.792 100 263.199 100C263.607 100 264.08 99.775 264.25 99.5C264.68 98.804 268.615 98.875 271.008 99.6215ZM463 108.828C461.762 108.935 460.3 109.224 459.75 109.47C459.2 109.715 457.681 110.209 456.375 110.567C455.069 110.925 454 111.394 454 111.609C454 111.824 453.55 112 453 112C452.45 112 452 112.225 452 112.5C452 112.775 451.706 113 451.347 113C450.763 113 449.925 113.658 445.898 117.283C442.509 120.332 439.797 124.506 437.473 130.25C435.907 134.118 435.906 145.863 437.47 149.75C438.449 152.18 440.282 155.764 440.625 155.916C440.831 156.008 441.001 156.346 441.002 156.666C441.003 157.315 444.115 161.175 445.898 162.741C446.529 163.296 447.867 164.481 448.87 165.375C449.874 166.269 450.989 167 451.347 167C451.706 167 452 167.225 452 167.5C452 167.775 452.45 168 453 168C453.55 168 454 168.176 454 168.391C454 168.606 455.069 169.074 456.375 169.432C457.681 169.791 459.265 170.332 459.895 170.637C460.557 170.957 463.72 171.18 467.395 171.166C472.743 171.145 474.304 170.952 477.25 169.946C479.175 169.289 480.825 168.583 480.916 168.376C481.008 168.169 481.514 168 482.041 168C482.569 168 483 167.811 483 167.58C483 167.349 483.544 166.912 484.21 166.609C486.762 165.446 493.998 158.097 493.999 156.666C493.999 156.346 494.169 156.008 494.375 155.916C494.912 155.678 496.829 151.602 497.511 149.25C497.829 148.15 498.295 146.559 498.545 145.714C499.153 143.66 499.124 136.235 498.5 134.16C498.225 133.247 497.759 131.656 497.466 130.625C496.83 128.393 494.905 124.319 494.375 124.083C494.169 123.991 493.999 123.654 493.999 123.333C493.998 121.902 486.762 114.553 484.21 113.391C483.544 113.087 483 112.65 483 112.419C483 112.189 482.569 112 482.041 112C481.514 112 481.008 111.831 480.916 111.624C480.825 111.417 479.287 110.762 477.5 110.168C474.215 109.076 467.392 108.445 463 108.828ZM339.25 112.5C339.42 112.775 340.108 113 340.779 113C341.451 113 342 113.225 342 113.5C342 113.775 342.315 114 342.7 114C343.609 114 347 117.39 347 118.3C347 118.685 347.225 119 347.5 119C347.775 119 348 119.549 348 120.22C348 120.892 348.225 121.58 348.5 121.75C348.775 121.92 349 123.382 349 125C349 126.617 348.775 128.08 348.5 128.25C348.225 128.42 348 129.108 348 129.779C348 130.451 347.775 131 347.5 131C347.225 131 347 131.315 347 131.7C347 132.609 343.609 136 342.7 136C342.315 136 342 136.17 342 136.378C342 137.571 333.436 138.609 332.75 137.5C332.58 137.225 331.892 137 331.22 137C330.549 137 330 136.775 330 136.5C330 136.225 329.685 136 329.3 136C328.39 136 325 132.609 325 131.7C325 131.315 324.775 131 324.5 131C324.225 131 324 130.451 324 129.779C324 129.108 323.775 128.42 323.5 128.25C323.225 128.08 323 126.617 323 125C323 123.382 323.225 121.92 323.5 121.75C323.775 121.58 324 120.892 324 120.22C324 119.549 324.225 119 324.5 119C324.775 119 325 118.696 325 118.324C325 117.41 327.67 114.672 328.96 114.262C329.532 114.081 330 113.723 330 113.466C330 113.21 330.549 113 331.22 113C331.892 113 332.58 112.775 332.75 112.5C332.92 112.225 334.382 112 336 112C337.617 112 339.08 112.225 339.25 112.5ZM472.916 124.576C473.008 124.809 473.405 125 473.798 125C474.192 125 475.009 125.281 475.615 125.625C477.253 126.554 482 131.529 482 132.317C482 132.692 482.225 133 482.5 133C482.775 133 483 133.675 483 134.5C483 135.325 483.225 136 483.5 136C483.791 136 484 137.666 484 140C484 142.333 483.791 144 483.5 144C483.225 144 483 144.675 483 145.5C483 146.325 482.775 147 482.5 147C482.225 147 482 147.307 482 147.683C482 148.47 477.253 153.446 475.615 154.375C475.009 154.719 474.192 155 473.798 155C473.405 155 472.998 155.256 472.893 155.569C472.64 156.329 462.35 156.3 462.096 155.539C461.997 155.242 461.595 155 461.201 155C460.808 155 459.99 154.719 459.384 154.375C457.747 153.446 453 148.47 453 147.683C453 147.307 452.775 147 452.5 147C452.225 147 452 146.325 452 145.5C452 144.675 451.775 144 451.5 144C451.208 144 451 142.333 451 140C451 137.666 451.208 136 451.5 136C451.775 136 452 135.325 452 134.5C452 133.675 452.225 133 452.5 133C452.775 133 453 132.692 453 132.317C453 131.529 457.747 126.554 459.384 125.625C459.99 125.281 460.827 125 461.243 125C461.659 125 462 124.787 462 124.526C462 123.558 472.535 123.606 472.916 124.576ZM192.5 141.486C192.087 141.76 190.919 141.988 189.904 141.992C188.889 141.996 187.92 142.225 187.75 142.5C187.58 142.775 186.667 143 185.72 143C184.774 143 184 143.225 184 143.5C184 143.775 183.451 144 182.779 144C182.108 144 181.42 144.225 181.25 144.5C181.08 144.775 180.504 145 179.97 145C179.436 145 179 145.225 179 145.5C179 145.775 178.55 146 178 146C177.45 146 177 146.225 177 146.5C177 146.775 176.55 147 176 147C175.45 147 175 147.225 175 147.5C175 147.775 174.653 148 174.229 148C173.805 148 172.975 148.45 172.385 149C171.794 149.55 171.016 150 170.655 150C170.295 150 170 150.176 170 150.392C170 150.608 169.312 151.19 168.471 151.687C167.631 152.184 166.176 153.357 165.238 154.295C163.599 155.934 161.861 156.488 161.284 155.555C160.823 154.809 157.582 154.4 150.25 154.161C146.068 154.025 142.495 154.148 141.375 154.467C140.344 154.76 138.543 155.247 137.375 155.548C136.206 155.85 134.859 156.3 134.382 156.548C133.904 156.797 133.173 157 132.757 157C132.34 157 132 157.225 132 157.5C132 157.775 131.55 158 131 158C130.45 158 130 158.225 130 158.5C130 158.775 129.705 159 129.344 159C128.983 159 128.205 159.45 127.615 160C127.025 160.55 126.318 161 126.044 161C125.542 161 121.229 164.768 119.293 166.898C115.842 170.694 115 171.763 115 172.347C115 172.706 114.798 173 114.552 173C114.01 173 111 179.117 111 180.218C111 180.648 110.775 181 110.5 181C110.225 181 110 181.45 110 182C110 182.778 109.666 183 108.5 183C107.675 183 107 183.225 107 183.5C107 183.775 106.659 184 106.243 184C105.827 184 105.095 184.2 104.618 184.445C104.14 184.69 102.681 185.4 101.375 186.024C100.068 186.647 99 187.347 99 187.578C99 187.81 98.55 188 98 188C97.45 188 97 188.187 97 188.415C97 188.644 96.3825 189.15 95.6275 189.54C93.8995 190.434 85.886 198.442 84.684 200.477C84.189 201.315 83.608 202 83.392 202C83.1765 202 83 202.431 83 202.958C83 203.485 82.819 203.991 82.5985 204.083C82.3775 204.175 81.4515 205.825 80.5405 207.75C79.6295 209.675 78.685 211.64 78.442 212.118C78.199 212.595 78 213.538 78 214.213C78 214.888 77.775 215.58 77.5 215.75C77.225 215.92 77 216.9 77 217.929C77 218.958 76.7635 220.036 76.474 220.326C75.7835 221.016 76.1535 234.878 76.9525 238.25C77.278 239.625 77.673 241.371 77.83 242.131C77.987 242.89 78.3145 243.635 78.5575 243.785C79.1295 244.139 79.13 247.258 78.5585 248.382C78.3155 248.859 77.8955 249.812 77.625 250.5C77.355 251.187 76.9045 252.312 76.624 253C74.9995 256.982 74.2915 261.421 74.351 267.25C74.4085 272.899 74.88 277.022 75.5485 277.725C75.797 277.986 76 278.83 76 279.6C76 280.37 76.225 281 76.5 281C76.775 281 77 281.549 77 282.22C77 282.892 77.225 283.58 77.5 283.75C77.775 283.92 78 284.495 78 285.029C78 285.563 78.225 286 78.5 286C78.775 286 79 286.347 79 286.771C79 287.195 79.45 288.025 80 288.615C80.55 289.205 81 289.965 81 290.302C81 290.64 81.675 291.215 82.5 291.58C83.325 291.945 84 292.414 84 292.622C84 292.83 85.13 293 86.5105 293C88.3855 293 89.525 292.666 91.0105 291.683C92.105 290.959 93 290.059 93 289.683C93 289.307 93.225 289 93.5 289C93.7855 289 94 287.5 94 285.5C94 283.5 93.7855 282 93.5 282C93.225 282 93 281.55 93 281C93 280.45 92.83 280 92.622 280C92.0125 280 90.924 277.073 89.5325 271.692C88.86 269.092 88.839 263.658 89.5 263.25C89.775 263.08 90 262.067 90 261C90 259.932 90.225 258.92 90.5 258.75C90.775 258.58 91 257.892 91 257.22C91 256.549 91.1685 255.996 91.375 255.992C91.5815 255.988 92.3005 254.863 92.9735 253.492C93.6465 252.121 94.3775 251 94.5985 251C94.8195 251 95 250.482 95 249.85C95 249.217 95.2025 248.486 95.4505 248.225C95.959 247.688 95.004 243 94.3865 243C94.174 243 94 242.563 94 242.029C94 241.495 93.775 240.92 93.5 240.75C93.225 240.58 93 239.892 93 239.22C93 238.549 92.7995 238 92.5545 238C91.7865 238 91.3685 234.476 91.3685 228C91.3685 221.523 91.7865 218 92.5545 218C92.7995 218 93 217.451 93 216.779C93 216.108 93.225 215.42 93.5 215.25C93.775 215.08 94 214.504 94 213.97C94 213.436 94.225 213 94.5 213C94.775 213 95 212.705 95 212.344C95 211.983 95.45 211.205 96 210.615C96.55 210.025 97 209.333 97 209.079C97 208.354 103.092 202.331 104.625 201.54C105.381 201.15 106 200.644 106 200.415C106 200.187 106.45 200 107 200C107.55 200 108 199.775 108 199.5C108 199.225 108.45 199 109 199C109.55 199 110 198.83 110 198.621C110 198.164 113.584 197 114.992 197C115.546 197 116 196.775 116 196.5C116 196.225 116.565 196 117.257 196C119.703 196 123 193.286 123 191.272C123 190.572 123.225 190 123.5 190C123.775 190 124 189.226 124 188.279C124 187.333 124.225 186.42 124.5 186.25C124.775 186.08 125 185.504 125 184.97C125 184.436 125.225 184 125.5 184C125.775 184 126 183.55 126 183C126 182.45 126.225 182 126.5 182C126.775 182 127 181.676 127 181.281C127 180.266 134.17 173 135.172 173C135.627 173 136 172.775 136 172.5C136 172.225 136.45 172 137 172C137.55 172 138 171.775 138 171.5C138 171.225 138.45 171 139 171C139.55 171 140 170.775 140 170.5C140 170.225 140.661 170 141.47 170C142.279 170 143.08 169.775 143.25 169.5C143.424 169.217 145.868 169 148.869 169C153.751 169 156.352 169.416 158.618 170.561C159.095 170.802 159.827 171 160.243 171C160.659 171 161 171.17 161 171.378C161 171.767 164.498 173 165.602 173C167.299 173 170.892 170.625 172.484 168.451C173.437 167.151 174.848 165.714 175.621 165.257C176.394 164.801 177.539 163.937 178.166 163.338C179.992 161.593 184.809 159 186.226 159C186.651 159 187 158.775 187 158.5C187 158.225 187.549 158 188.22 158C188.892 158 189.58 157.775 189.75 157.5C189.92 157.225 190.932 157 192 157C193.067 157 194.092 156.756 194.276 156.457C194.494 156.105 196.83 155.947 200.931 156.008C210.53 156.149 210.199 156.201 212.144 154.255C216.075 150.325 214.151 142.946 208.883 141.742C206.22 141.134 193.332 140.932 192.5 141.486ZM63.9745 145.843C62.463 146.085 60.6635 147.585 58.99 150C58.323 150.962 57.3775 152.186 56.8885 152.719C56.4 153.252 56 153.983 56 154.344C56 154.705 55.813 155 55.5845 155C55.356 155 54.8495 155.619 54.4595 156.375C54.0695 157.131 53.356 158.186 52.875 158.719C52.394 159.252 52 159.965 52 160.302C52 160.64 51.8315 160.991 51.625 161.083C51.2645 161.243 49.3525 164.542 48.271 166.871C47.9845 167.487 47.5815 167.994 47.375 167.996C47.1685 167.998 47 168.295 47 168.656C47 169.017 46.55 170.243 46 171.382C45.45 172.52 45 173.8 45 174.226C45 174.651 44.775 175 44.5 175C44.225 175 44 175.34 44 175.757C44 176.173 43.8015 176.904 43.5585 177.382C42.7675 178.936 42.0775 180.711 41.4715 182.75C41.1445 183.85 40.68 185.14 40.4385 185.618C40.1975 186.095 40 187.052 40 187.743C40 188.434 39.7995 189 39.5545 189C39.117 189 38.725 190.671 38.1765 194.875C38.024 196.043 37.718 197 37.496 197C37.274 197 36.967 198.181 36.813 199.625C36.6595 201.069 36.2915 203.937 35.9955 206C35.6995 208.062 35.2615 211.887 35.022 214.5C34.278 222.621 33.649 225.253 31.05 231.119C30.4725 232.423 30 233.829 30 234.244C30 234.66 29.775 235 29.5 235C29.225 235 29 235.45 29 236C29 236.55 28.775 237 28.5 237C28.225 237 28 237.436 28 237.97C28 238.504 27.775 239.08 27.5 239.25C27.225 239.42 27 240.095 27 240.75C27 241.405 26.775 242.08 26.5 242.25C26.224 242.42 26 244.672 26 247.279C26 250.093 26.202 252 26.5 252C26.775 252 27 252.675 27 253.5C27 254.325 27.225 255 27.5 255C27.775 255 28 255.292 28 255.65C28 256.57 29.176 258.991 29.625 258.996C29.8315 258.998 30 259.45 30 260C30 260.55 30.225 261 30.5 261C30.775 261 31 261.295 31 261.655C31 262.016 31.45 262.794 32 263.385C32.55 263.975 33 264.786 33 265.187C33 265.588 33.176 265.991 33.3915 266.083C33.607 266.175 34.282 267.106 34.8915 268.153C36.571 271.037 36.2925 274.033 34.125 276.391C33.7815 276.765 33.5 277.264 33.5 277.5C33.5 277.735 33.2115 278.226 32.8585 278.589C32.5055 278.952 31.6645 280.035 30.9895 280.994C27.8545 285.449 19.42 293.879 14.9805 296.996C14.0285 297.664 12.6875 298.791 12 299.5C11.3125 300.209 9.96247 301.335 8.99997 302.003C6.82447 303.512 6.50798 303.829 5.00748 306C4.34248 306.962 3.67497 307.862 3.52397 308C2.93397 308.538 1.99997 310.525 1.99997 311.243C1.99997 311.659 1.77497 312 1.49997 312C1.22497 312 0.99997 312.675 0.99997 313.5C0.99997 314.325 0.77497 315 0.49997 315C-0.16153 315 -0.16153 324.341 0.49997 324.75C0.77497 324.92 0.99997 325.587 0.99997 326.232C0.99997 327.431 2.76447 331.236 3.85747 332.393C4.19147 332.747 4.84097 333.672 5.29997 334.45C5.75947 335.228 6.77197 336.24 7.54947 336.7C8.32747 337.159 9.26198 337.808 9.62598 338.142C11.073 339.469 16.059 342 17.226 342C17.6515 342 18 342.225 18 342.5C18 342.775 18.549 343 19.2205 343C19.892 343 20.58 343.225 20.75 343.5C20.92 343.775 21.4955 344 22.0295 344C23.864 344 23.0295 345.806 19.7585 348.917C17.9755 350.612 16.321 352 16.0825 352C15.212 352 12.513 355.024 12.184 356.368C11.998 357.128 11.629 357.892 11.3635 358.066C10.6685 358.522 10.74 367.663 11.4405 367.897C11.748 367.999 12 368.399 12 368.786C12 369.946 14.984 373.307 18.4035 376C19.495 376.859 19.9925 377.679 19.9955 378.625C19.998 379.381 19.775 380 19.5 380C19.225 380 19 380.45 19 381C19 381.55 18.775 382 18.5 382C18.225 382 18 382.886 18 383.97C18 385.054 17.754 386.093 17.453 386.279C16.69 386.75 17.548 392.556 18.7885 395.318C19.711 397.371 22.188 400 23.2005 400C23.6405 400 24 400.176 24 400.391C24 400.606 25.0685 401.097 26.375 401.482C30.4425 402.681 30.439 402.66 27.4375 408.618C27.197 409.095 27 409.894 27 410.393C27 410.892 26.7625 411.537 26.473 411.827C26.1315 412.168 26.024 414.805 26.1675 419.302C26.4 426.581 26.81 429.823 27.555 430.284C27.8 430.435 28 431.108 28 431.779C28 432.451 28.225 433 28.5 433C28.775 433 29 433.45 29 434C29 434.55 29.225 435 29.5 435C29.775 435 30 435.45 30 436C30 436.55 30.225 437 30.5 437C30.775 437 31.004 437.281 31.009 437.625C31.0355 439.44 40.523 448.962 42.3335 448.991C42.654 448.996 42.9915 449.169 43.0835 449.375C43.3235 449.915 47.4645 452 48.2975 452C48.684 452 49 452.225 49 452.5C49 452.775 49.549 453 50.2205 453C50.892 453 51.58 453.225 51.75 453.5C51.92 453.775 52.595 454 53.25 454C53.905 454 54.58 454.225 54.75 454.5C54.92 454.775 55.788 455 56.6795 455C57.571 455 58.514 455.206 58.775 455.458C59.9375 456.578 70.17 456.88 79.25 456.062C84.8315 455.559 87.1195 455.3 97.375 454.014C99.506 453.746 102.825 453.35 104.75 453.133C106.675 452.917 108.527 452.562 108.865 452.346C109.811 451.741 126.706 451.869 126.911 452.483C127.006 452.767 127.63 453 128.298 453C128.967 453 129.96 453.225 130.507 453.5C131.053 453.775 131.947 454.225 132.493 454.5C133.039 454.775 133.827 455 134.243 455C134.659 455 135 455.225 135 455.5C135 455.775 135.24 456 135.535 456C136.718 456 143.126 460.967 145.728 463.902C146.29 464.535 147.706 466.09 148.875 467.356C150.043 468.623 151 469.857 151 470.1C151 470.343 151.45 471.025 152 471.615C152.55 472.205 153 472.983 153 473.344C153 473.705 153.197 474 153.439 474C153.681 474 154.158 474.675 154.5 475.5C154.841 476.325 155.319 477 155.56 477C155.802 477 156 477.45 156 478C156 478.55 156.225 479 156.5 479C156.775 479 157 479.431 157 479.958C157 480.485 157.168 480.991 157.375 481.083C157.915 481.323 160 485.464 160 486.297C160 486.684 160.225 487 160.5 487C160.775 487 161 487.45 161 488C161 488.55 161.225 489 161.5 489C161.775 489 162 489.295 162 489.656C162 490.017 162.45 491.243 163 492.382C163.55 493.52 164 494.8 164 495.226C164 495.651 164.225 496 164.5 496C164.775 496 165 496.45 165 497C165 497.55 165.225 498 165.5 498C165.775 498 166 498.45 166 499C166 499.55 166.225 500 166.5 500C166.775 500 167 500.311 167 500.692C167 501.663 173.253 508 174.212 508C174.645 508 175.002 508.169 175.004 508.375C175.008 508.824 177.43 510 178.349 510C178.707 510 179 510.2 179 510.445C179 511.46 190.727 512.472 191.661 511.538C191.957 511.242 193.055 511 194.1 511C195.145 511 196 510.775 196 510.5C196 510.225 196.9 510 198 510C199.1 510 200 509.775 200 509.5C200 509.225 200.774 509 201.72 509C202.667 509 203.58 508.775 203.75 508.5C203.92 508.225 204.945 508 206.029 508C207.113 508 208 507.775 208 507.5C208 507.225 208.774 507 209.72 507C210.667 507 211.58 506.775 211.75 506.5C211.92 506.225 212.82 506 213.75 506C214.68 506 215.564 505.8 215.716 505.555C215.867 505.31 216.724 504.989 217.62 504.841C218.516 504.693 220.15 504.341 221.25 504.059C225.867 502.874 227.84 502.413 229.379 502.158C230.276 502.01 231.133 501.689 231.284 501.445C231.435 501.2 232.333 501 233.279 501C234.226 501 235 500.775 235 500.5C235 500.225 235.9 500 237 500C238.1 500 239 499.775 239 499.5C239 499.225 239.774 499 240.72 499C241.667 499 242.564 498.8 242.716 498.555C242.867 498.31 243.724 497.989 244.62 497.841C245.516 497.693 247.15 497.341 248.25 497.059C252.867 495.874 254.84 495.413 256.379 495.158C257.276 495.01 258.133 494.689 258.284 494.445C258.435 494.2 259.333 494 260.279 494C261.226 494 262 493.775 262 493.5C262 493.225 262.9 493 264 493C265.1 493 266 492.775 266 492.5C266 492.225 266.9 492 268 492C269.1 492 270 491.775 270 491.5C270 491.225 270.774 491 271.72 491C272.667 491 273.58 490.775 273.75 490.5C273.92 490.225 274.82 490 275.75 490C276.68 490 277.58 489.775 277.75 489.5C277.92 489.225 278.82 489 279.75 489C280.68 489 281.564 488.8 281.716 488.555C281.867 488.31 282.724 487.989 283.62 487.841C284.516 487.693 286.206 487.331 287.375 487.036C288.543 486.741 290.456 486.258 291.625 485.964C292.793 485.669 294.483 485.306 295.379 485.158C296.276 485.01 297.133 484.689 297.284 484.445C297.435 484.2 298.207 484 299 484C299.792 484 300.58 483.775 300.75 483.5C300.92 483.225 301.945 483 303.029 483C304.113 483 305 482.775 305 482.5C305 482.225 305.9 482 307 482C308.1 482 309 481.775 309 481.5C309 481.225 309.774 481 310.72 481C311.667 481 312.58 480.775 312.75 480.5C312.92 480.225 313.72 480 314.529 480C315.338 480 316 479.775 316 479.5C316 479.225 316.506 478.995 317.125 478.989C317.743 478.983 318.812 478.538 319.5 478C320.187 477.462 320.954 477.017 321.203 477.011C321.95 476.993 329 469.495 329 468.719C329 468.323 329.225 468 329.5 468C329.775 468 330 467.563 330 467.029C330 466.495 330.225 465.92 330.5 465.75C330.775 465.58 331 464.792 331 464C331 463.207 331.225 462.42 331.5 462.25C331.779 462.077 332 459.754 332 457C332 454.245 331.779 451.922 331.5 451.75C331.225 451.58 331 450.824 331 450.07C331 449.316 330.815 448.486 330.59 448.225C330.364 447.964 329.649 446.062 329 444C328.351 441.937 327.635 440.036 327.41 439.775C327.184 439.513 327 438.782 327 438.15C327 437.517 326.775 437 326.5 437C326.225 437 326 436.659 326 436.243C326 434.739 324.505 432.701 322.612 431.625C321.306 430.882 316 430.782 316 431.5C316 431.775 315.646 432 315.214 432C314.268 432 313.502 432.762 312.5 434.701C311.669 436.308 311.668 441.368 312.498 442.198C312.774 442.474 313 443.217 313 443.85C313 444.482 313.225 445 313.5 445C313.775 445 314 445.675 314 446.5C314 447.325 314.225 448 314.5 448C314.775 448 315 448.675 315 449.5C315 450.325 315.225 451 315.5 451C315.775 451 316 451.675 316 452.5C316 453.325 316.225 454 316.5 454C316.778 454 317 455.333 317 457C317 458.666 316.778 460 316.5 460C316.225 460 316 460.345 316 460.766C316 462.698 311.027 466 308.119 466C307.536 466 306.92 466.225 306.75 466.5C306.58 466.775 305.792 467 305 467C304.207 467 303.42 467.225 303.25 467.5C303.08 467.775 302.054 468 300.97 468C299.886 468 299 468.225 299 468.5C299 468.775 298.226 469 297.279 469C296.333 469 295.42 469.225 295.25 469.5C295.08 469.775 294.18 470 293.25 470C292.32 470 291.435 470.2 291.284 470.445C291.133 470.689 290.276 471.01 289.379 471.158C288.483 471.306 286.737 471.685 285.5 472C284.262 472.314 282.516 472.693 281.62 472.841C280.724 472.989 279.867 473.31 279.716 473.555C279.564 473.8 278.68 474 277.75 474C276.82 474 275.92 474.225 275.75 474.5C275.58 474.775 274.68 475 273.75 475C272.82 475 271.92 475.225 271.75 475.5C271.58 475.775 270.667 476 269.72 476C268.774 476 268 476.225 268 476.5C268 476.775 267.1 477 266 477C264.9 477 264 477.225 264 477.5C264 477.775 263.1 478 262 478C260.9 478 260 478.225 260 478.5C260 478.775 259.226 479 258.279 479C257.333 479 256.42 479.225 256.25 479.5C256.08 479.775 255.18 480 254.25 480C253.32 480 252.435 480.2 252.284 480.445C252.133 480.689 251.276 481.01 250.379 481.158C249.483 481.306 247.85 481.658 246.75 481.941C242.133 483.126 240.16 483.587 238.62 483.841C237.724 483.989 236.867 484.31 236.716 484.555C236.564 484.8 235.667 485 234.72 485C233.774 485 233 485.225 233 485.5C233 485.775 232.226 486 231.279 486C230.333 486 229.42 486.225 229.25 486.5C229.08 486.775 228.18 487 227.25 487C226.32 487 225.42 487.225 225.25 487.5C225.08 487.775 224.18 488 223.25 488C222.32 488 221.42 488.225 221.25 488.5C221.08 488.775 220.292 489 219.5 489C218.707 489 217.92 489.225 217.75 489.5C217.58 489.775 216.68 490 215.75 490C214.82 490 213.92 490.225 213.75 490.5C213.58 490.775 212.68 491 211.75 491C210.82 491 209.92 491.225 209.75 491.5C209.58 491.775 208.68 492 207.75 492C206.82 492 205.92 492.225 205.75 492.5C205.58 492.775 204.667 493 203.72 493C202.774 493 202 493.225 202 493.5C202 493.775 201.1 494 200 494C198.9 494 198 494.225 198 494.5C198 494.775 197.1 495 196 495C194.9 495 194 495.225 194 495.5C194 495.775 193.1 496 192 496C190.9 496 190 496.225 190 496.5C190 497.203 186.172 497.123 184.035 496.375C183.053 496.031 181.763 495.273 181.169 494.691C180.006 493.554 178 489.732 178 488.656C178 488.295 177.775 488 177.5 488C177.225 488 177 487.651 177 487.226C177 486.8 176.55 485.52 176 484.382C175.45 483.243 175 482.017 175 481.656C175 481.295 174.775 481 174.5 481C174.225 481 174 480.55 174 480C174 479.45 173.775 479 173.5 479C173.225 479 173 478.55 173 478C173 477.45 172.775 477 172.5 477C172.225 477 172 476.55 172 476C172 475.45 171.775 475 171.5 475C171.225 475 171 474.55 171 474C171 473.45 170.775 473 170.5 473C170.225 473 170 472.55 170 472C170 471.45 169.801 471 169.558 471C169.315 471 168.992 470.606 168.839 470.125C168.479 468.989 166.985 466.559 165.875 465.302C165.394 464.757 165 464.016 165 463.655C165 463.295 164.823 463 164.608 463C164.392 463 163.813 462.319 163.321 461.486C162.83 460.654 161.932 459.473 161.328 458.861C160.723 458.25 159.673 456.962 158.996 456C157.407 453.744 154.224 450.567 152 449.017C151.037 448.346 149.912 447.447 149.5 447.02C149.087 446.593 148.131 445.925 147.375 445.537C146.618 445.149 146 444.644 146 444.415C146 444.187 145.705 444 145.344 444C144.983 444 144.205 443.55 143.615 443C143.025 442.45 142.349 442 142.115 442C141.88 442 140.756 441.55 139.618 441C138.479 440.45 137.2 440 136.774 440C136.348 440 136 439.775 136 439.5C136 439.225 135.325 439 134.5 439C133.675 439 133 438.775 133 438.5C133 438.225 132.145 438 131.1 438C130.055 438 128.936 437.736 128.613 437.413C127.809 436.609 108.17 436.629 107.365 437.435C107.054 437.746 105.315 438 103.5 438C101.685 438 99.986 438.207 99.725 438.459C99.4635 438.712 97.7875 439.043 96 439.194C94.2125 439.345 90.8375 439.705 88.5 439.995C82.1385 440.782 72.6095 441.587 69.5 441.599C65.8355 441.614 61.0475 440.981 60.7115 440.437C60.5625 440.197 59.667 440 58.7205 440C57.774 440 57 439.775 57 439.5C57 439.225 56.557 439 56.015 439C55.126 439 54.0935 438.519 50.479 436.422C48.7975 435.446 44.389 430.946 43.4085 429.204C41.6945 426.158 41.0145 423.243 41.0075 418.904C41.0035 416.514 41.225 414.42 41.5 414.25C41.775 414.08 42 413.504 42 412.97C42 412.436 42.225 412 42.5 412C42.775 412 43 411.55 43 411C43 410.45 43.225 410 43.5 410C43.775 410 44 409.55 44 409C44 408.45 44.17 408 44.3785 408C44.9415 408 46 404.268 46 402.281C46 400.66 45.695 399.608 44.324 396.5C43.52 394.676 38.897 390.025 37.875 390.011C37.394 390.005 37 389.775 37 389.5C37 389.225 36.7075 389 36.3495 389C35.204 389 33.008 387.771 33.004 387.127C33.002 386.785 34.094 385.387 35.4315 384.022C38.0435 381.354 38.6755 379.512 38.1415 376.125C37.897 374.572 36.915 373.323 32.423 368.852C29.4405 365.884 27 363.266 27 363.035C27 362.804 27.5995 362.222 28.332 361.742C30.0915 360.589 32.4775 358.165 33.984 356C34.654 355.037 35.3555 354.137 35.543 354C36.261 353.473 38 349.924 38 348.985C38 348.443 38.225 348 38.5 348C38.7915 348 39 346.333 39 344C39 341.666 38.7915 340 38.5 340C38.225 340 38 339.659 38 339.243C38 337.545 34.8935 333.845 32.3715 332.54C31.617 332.15 31 331.644 31 331.415C31 331.187 30.5635 331 30.0295 331C29.4955 331 28.92 330.775 28.75 330.5C28.58 330.225 27.892 330 27.2205 330C26.549 330 26 329.775 26 329.5C26 329.225 25.451 329 24.7795 329C24.108 329 23.42 328.775 23.25 328.5C23.08 328.225 22.5045 328 21.9705 328C21.4365 328 21 327.775 21 327.5C21 327.225 20.64 327 20.2005 327C19.7605 327 18.4105 325.951 17.2005 324.67C15.2255 322.579 15 322.093 15 319.926C15 317.597 15.1305 317.38 18.696 313.756C20.7285 311.69 22.614 310 22.8855 310C23.157 310 24.2505 309.155 25.3145 308.122C26.379 307.09 28.0375 305.685 29 305.002C31.2845 303.379 37.421 297.232 38.9855 295C39.6595 294.037 40.839 292.653 41.6055 291.924C42.3725 291.195 43.0005 290.408 43.001 290.174C43.002 289.941 43.6765 288.962 44.5 288C45.3235 287.037 45.998 285.987 45.999 285.666C45.9995 285.346 46.1685 285.008 46.375 284.916C46.8445 284.708 48.468 282.045 48.839 280.875C48.992 280.394 49.3155 280 49.5585 280C49.801 280 50 279.451 50 278.779C50 278.108 50.225 277.42 50.5 277.25C51.1205 276.866 51.1675 267.313 50.5545 266.118C50.31 265.64 49.5815 264.125 48.9365 262.75C48.2915 261.375 47.648 260.137 47.5065 260C47.3655 259.862 46.969 259.243 46.625 258.625C46.2815 258.006 45.719 256.993 45.375 256.375C45.0315 255.756 44.6375 255.137 44.5 255C44.1355 254.635 42.944 252.523 41.9055 250.399C40.9 248.343 40.7395 246.004 41.5 244.493C41.775 243.947 42.225 243.053 42.5 242.507C42.775 241.96 43 241.173 43 240.757C43 240.34 43.225 240 43.5 240C43.775 240 44 239.55 44 239C44 238.45 44.225 238 44.5 238C44.775 238 45 237.563 45 237.029C45 236.495 45.225 235.92 45.5 235.75C45.775 235.58 46 234.892 46 234.22C46 233.549 46.225 233 46.5 233C46.775 233 47 232.325 47 231.5C47 230.675 47.225 230 47.5 230C47.775 230 48 229.257 48 228.35C48 227.442 48.2045 226.486 48.454 226.225C48.906 225.752 49.0835 224.524 50.006 215.5C50.8945 206.808 51.6975 201.712 52.9995 196.5C53.3085 195.262 53.686 193.628 53.8385 192.869C53.9905 192.109 54.3145 191.364 54.5575 191.214C54.801 191.064 55 190.279 55 189.47C55 188.661 55.225 188 55.5 188C55.775 188 56 187.547 56 186.993C56 186.439 56.1985 185.595 56.4415 185.118C56.6845 184.64 57.161 183.575 57.5 182.75C57.839 181.925 58.3155 180.859 58.5585 180.382C58.8015 179.904 59 179.173 59 178.757C59 178.34 59.225 178 59.5 178C59.775 178 60 177.55 60 177C60 176.45 60.225 176 60.5 176C60.775 176 61 175.55 61 175C61 174.45 61.225 174 61.5 174C61.775 174 62 173.568 62 173.041C62 172.514 62.1685 172.008 62.375 171.916C62.8445 171.708 64.468 169.045 64.839 167.875C64.992 167.394 65.3155 167 65.5585 167C65.801 167 66.0005 166.719 66.001 166.375C66.002 166.031 66.6765 164.962 67.5 164C68.3235 163.037 68.998 161.969 68.999 161.625C68.9995 161.281 69.1765 161 69.392 161C69.608 161 70.1785 160.333 70.6595 159.518C71.141 158.703 71.8085 157.747 72.1425 157.393C72.4765 157.039 73.046 155.906 73.4075 154.875C74.238 152.505 73.463 149.97 71.2115 147.694C69.637 146.103 66.8345 145.386 63.9745 145.843ZM390.5 146.5C390.087 146.766 389.131 146.988 388.375 146.992C387.618 146.996 387 147.225 387 147.5C387 147.775 386.557 148 386.015 148C385.002 148 382.391 149.319 379.75 151.165C377.877 152.475 373 157.476 373 158.088C373 158.337 372.568 159.005 372.04 159.572C371.512 160.139 370.788 161.592 370.431 162.801C370.074 164.01 369.63 165 369.445 165C368.818 165 368.374 168.731 368.374 174C368.374 179.268 368.818 183 369.445 183C369.63 183 370.074 183.989 370.431 185.198C370.788 186.408 371.512 187.861 372.04 188.428C372.568 188.994 373 189.68 373 189.951C373 190.594 379.405 197 380.048 197C380.32 197 381.025 197.45 381.615 198C382.205 198.55 383.083 199 383.565 199C384.046 199 384.58 199.225 384.75 199.5C384.92 199.775 385.495 200 386.029 200C386.563 200 387 200.2 387 200.445C387 201.492 400.193 202.507 401.165 201.534C401.459 201.24 402.442 201 403.35 201C404.257 201 405 200.775 405 200.5C405 200.225 405.331 200 405.736 200C406.742 200 411 197.897 411 197.4C411 197.18 411.325 197 411.722 197C412.663 197 419 190.663 419 189.722C419 189.325 419.18 189 419.4 189C419.897 189 422 184.742 422 183.736C422 183.331 422.225 183 422.5 183C422.775 183 423 182.257 423 181.35C423 180.442 423.24 179.459 423.534 179.165C424.507 178.193 423.492 165 422.445 165C422.2 165 422 164.734 422 164.41C422 163.466 419.862 159 419.411 159C419.185 159 419 158.675 419 158.278C419 157.337 412.663 151 411.722 151C411.325 151 411 150.82 411 150.599C411 150.103 406.742 148 405.736 148C405.331 148 405 147.775 405 147.5C405 147.225 404.226 147 403.279 147C402.333 147 401.42 146.775 401.25 146.5C400.853 145.857 391.494 145.857 390.5 146.5ZM239.5 152.5C239.087 152.766 238.131 152.988 237.375 152.992C236.618 152.996 236 153.225 236 153.5C236 153.775 235.707 154 235.349 154C234.43 154 232.008 155.176 232.004 155.625C232.002 155.831 231.677 156 231.282 156C230.475 156 225 161.288 225 162.068C225 162.345 224.651 162.92 224.225 163.346C223.799 163.772 223.321 164.768 223.163 165.56C223.004 166.352 222.678 167 222.437 167C222.197 167 222 167.661 222 168.47C222 169.279 221.775 170.08 221.5 170.25C221.225 170.42 221 172.557 221 175C221 177.442 221.225 179.58 221.5 179.75C221.775 179.92 222 180.587 222 181.232C222 182.42 223.935 186.61 224.625 186.916C224.831 187.008 225 187.372 225 187.724C225 188.664 230.277 194 231.207 194C231.643 194 232.002 194.168 232.004 194.375C232.008 194.824 234.43 196 235.349 196C235.707 196 236 196.2 236 196.445C236 197.46 247.727 198.472 248.661 197.538C248.957 197.242 249.83 197 250.6 197C251.37 197 252 196.803 252 196.562C252 196.322 252.648 195.995 253.439 195.837C254.231 195.678 255.228 195.2 255.654 194.774C256.08 194.348 256.689 194 257.007 194C257.806 194 263 188.525 263 187.683C263 187.307 263.168 186.998 263.375 186.996C263.824 186.991 265 184.57 265 183.65C265 183.292 265.2 183 265.445 183C266.487 183 267.125 172.634 266.292 169.25C265.845 167.434 263.896 163.315 263.375 163.083C263.168 162.991 263 162.628 263 162.275C263 161.472 257.787 156 257.022 156C256.712 156 255.975 155.55 255.385 155C254.794 154.45 253.791 154 253.155 154C252.52 154 252 153.775 252 153.5C252 153.225 251.338 153 250.529 153C249.72 153 248.92 152.775 248.75 152.5C248.354 151.859 240.492 151.859 239.5 152.5ZM399.25 161.5C399.42 161.775 400.108 162 400.779 162C401.451 162 402 162.225 402 162.5C402 162.775 402.315 163 402.7 163C403.609 163 407 166.39 407 167.3C407 167.685 407.225 168 407.5 168C407.775 168 408 168.549 408 169.22C408 169.892 408.225 170.58 408.5 170.75C408.775 170.92 409 172.395 409 174.029C409 175.676 408.777 177 408.5 177C408.225 177 408 177.675 408 178.5C408 179.325 407.775 180 407.5 180C407.225 180 407 180.315 407 180.7C407 181.609 403.609 185 402.7 185C402.315 185 402 185.225 402 185.5C402 185.775 401.451 186 400.779 186C400.108 186 399.42 186.225 399.25 186.5C399.08 186.775 397.617 187 396 187C394.382 187 392.92 186.775 392.75 186.5C392.58 186.225 391.892 186 391.22 186C390.549 186 390 185.775 390 185.5C390 185.225 389.685 185 389.3 185C388.39 185 385 181.609 385 180.7C385 180.315 384.775 180 384.5 180C384.225 180 384 179.451 384 178.779C384 178.108 383.775 177.42 383.5 177.25C382.796 176.815 382.877 172.172 383.625 170.035C383.969 169.053 384.644 167.814 385.125 167.28C385.606 166.747 386 166.099 386 165.839C386 165.191 388.604 163.001 389.375 163C389.719 163 390 162.775 390 162.5C390 162.225 390.549 162 391.22 162C391.892 162 392.58 161.775 392.75 161.5C392.92 161.225 394.382 161 396 161C397.617 161 399.08 161.225 399.25 161.5ZM247.718 168.037C249.403 168.829 250.17 169.597 250.962 171.282C252.267 174.057 252.273 175.93 250.984 178.671C248.326 184.325 239.831 184.359 237.094 178.726C235.728 175.913 235.714 174.098 237.037 171.282C238.858 167.409 243.427 166.02 247.718 168.037ZM319 167.5C318.587 167.766 317.519 167.988 316.625 167.992C315.731 167.996 315 168.225 315 168.5C315 168.775 314.451 169 313.779 169C313.108 169 312.42 169.225 312.25 169.5C312.08 169.775 311.504 170 310.97 170C310.436 170 310 170.225 310 170.5C310 170.775 309.759 171 309.465 171C308.62 171 304.458 174.015 302.237 176.237C300.015 178.458 297 182.62 297 183.465C297 183.759 296.775 184 296.5 184C296.225 184 296 184.436 296 184.97C296 185.504 295.775 186.08 295.5 186.25C295.225 186.42 295 187.108 295 187.779C295 188.451 294.798 189 294.552 189C293.53 189 292.512 203.212 293.466 204.166C293.76 204.46 294 205.442 294 206.35C294 207.257 294.225 208 294.5 208C294.775 208 295 208.549 295 209.22C295 209.892 295.225 210.58 295.5 210.75C295.775 210.92 296 211.495 296 212.029C296 212.563 296.225 213 296.5 213C296.775 213 297 213.295 297 213.655C297 214.016 297.45 214.794 298 215.385C298.55 215.975 299 216.662 299 216.912C299 218.251 307.923 226 309.465 226C309.759 226 310 226.225 310 226.5C310 226.775 310.436 227 310.97 227C311.504 227 312.08 227.225 312.25 227.5C312.42 227.775 313.108 228 313.779 228C314.451 228 315 228.2 315 228.445C315 229.494 329.176 230.524 330.154 229.545C330.454 229.245 331.442 229 332.35 229C333.257 229 334 228.775 334 228.5C334 228.225 334.675 228 335.5 228C336.325 228 337 227.775 337 227.5C337 227.225 337.45 227 338 227C338.55 227 339 226.775 339 226.5C339 226.225 339.295 226 339.655 226C340.016 226 340.794 225.55 341.385 225C341.975 224.45 342.68 224 342.951 224C343.594 224 350 217.594 350 216.951C350 216.68 350.45 215.975 351 215.385C351.55 214.794 352 214.016 352 213.655C352 213.295 352.225 213 352.5 213C352.775 213 353 212.55 353 212C353 211.45 353.225 211 353.5 211C353.775 211 354 210.325 354 209.5C354 208.675 354.225 208 354.5 208C354.775 208 355 207.145 355 206.1C355 205.055 355.247 203.953 355.548 203.651C356.473 202.726 355.442 189 354.447 189C354.201 189 354 188.325 354 187.5C354 186.675 353.775 186 353.5 186C353.225 186 353 185.55 353 185C353 184.45 352.775 184 352.5 184C352.225 184 352 183.759 352 183.465C352 182.62 348.984 178.458 346.763 176.237C344.542 174.015 340.379 171 339.535 171C339.24 171 339 170.775 339 170.5C339 170.225 338.563 170 338.029 170C337.495 170 336.92 169.775 336.75 169.5C336.58 169.225 335.892 169 335.22 169C334.549 169 334 168.775 334 168.5C334 168.225 333.113 168 332.029 168C330.945 168 329.92 167.775 329.75 167.5C329.353 166.857 319.994 166.857 319 167.5ZM328.25 182.5C328.42 182.775 328.951 183 329.43 183C330.523 183 332.991 184.124 332.996 184.625C332.998 184.831 333.315 185 333.7 185C334.085 185 335.21 185.81 336.2 186.8C337.19 187.79 338 188.915 338 189.3C338 189.685 338.199 190 338.441 190C338.684 190 339.014 190.394 339.173 190.875C339.333 191.356 339.806 192.65 340.224 193.75C340.643 194.85 340.985 196.987 340.985 198.5C340.985 200.012 340.643 202.15 340.224 203.25C339.806 204.35 339.333 205.644 339.173 206.125C339.014 206.606 338.684 207 338.441 207C338.199 207 338 207.315 338 207.7C338 208.609 334.609 212 333.7 212C333.315 212 333 212.199 333 212.441C333 212.684 332.606 213.014 332.125 213.173C331.644 213.333 330.35 213.806 329.25 214.224C328.15 214.643 326.012 214.985 324.5 214.985C322.987 214.985 320.85 214.643 319.75 214.224C318.65 213.806 317.356 213.333 316.875 213.173C316.394 213.014 316 212.684 316 212.441C316 212.199 315.685 212 315.3 212C314.39 212 311 208.609 311 207.7C311 207.315 310.831 206.998 310.625 206.996C310.124 206.991 309 204.523 309 203.43C309 202.951 308.775 202.42 308.5 202.25C307.347 201.537 308.391 192 309.621 192C309.83 192 310 191.55 310 191C310 190.45 310.225 190 310.5 190C310.775 190 311 189.685 311 189.3C311 188.915 311.81 187.79 312.8 186.8C313.79 185.81 314.915 185 315.3 185C315.685 185 316 184.775 316 184.5C316 184.225 316.45 184 317 184C317.55 184 318 183.821 318 183.603C318 182.416 327.562 181.387 328.25 182.5ZM416 219.5C416 219.775 415.546 220 414.992 220C413.584 220 410 221.164 410 221.621C410 221.83 409.688 222 409.308 222C408.499 222 402.582 227.72 401.53 229.519C400.017 232.107 399 234.489 399 235.446C399 235.993 398.775 236.58 398.5 236.75C398.225 236.92 398 239.07 398 241.529C398 244.176 398.204 246 398.5 246C398.775 246 399 246.453 399 247.008C399 248.416 400.164 252 400.621 252C400.83 252 401 252.326 401 252.726C401 253.672 408.328 261 409.274 261C409.673 261 410 261.176 410 261.391C410 261.606 411.069 262.07 412.375 262.424C413.681 262.777 415.14 263.276 415.618 263.533C416.798 264.167 425 264.138 425 263.5C425 263.225 425.49 263 426.089 263C427.659 263 430.591 261.893 431.719 260.875C432.252 260.394 432.876 260 433.105 260C433.648 260 439 254.648 439 254.105C439 253.876 439.393 253.252 439.875 252.719C440.893 251.591 442 248.659 442 247.089C442 246.49 442.225 246 442.5 246C442.796 246 443 244.166 443 241.5C443 238.833 442.796 237 442.5 237C442.225 237 442 236.509 442 235.91C442 234.341 440.893 231.408 439.875 230.28C439.393 229.747 439 229.1 439 228.841C439 228.105 432.487 222 431.702 222C431.316 222 431 221.83 431 221.621C431 221.164 427.416 220 426.008 220C425.453 220 425 219.775 425 219.5C425 219.203 423.166 219 420.5 219C417.833 219 416 219.203 416 219.5ZM166.5 224.483C166.087 224.759 165.144 224.988 164.404 224.992C163.664 224.996 162.92 225.225 162.75 225.5C162.58 225.775 161.892 226 161.22 226C160.549 226 160 226.225 160 226.5C160 226.775 159.707 227 159.349 227C158.43 227 156.008 228.176 156.004 228.625C156.002 228.831 155.706 229 155.347 229C154.989 229 153.889 229.731 152.905 230.625C151.92 231.519 150.582 232.734 149.932 233.326C148.095 234.999 146.319 237.149 145.54 238.64C145.15 239.388 144.644 240 144.415 240C144.187 240 144 240.353 144 240.785C144 241.982 142.725 243 141.226 243C139.701 243 133.337 245.05 133.083 245.624C132.991 245.831 132.654 246.004 132.333 246.009C130.601 246.036 123 253.566 123 255.255C123 255.665 122.83 256 122.622 256C122.284 256 121.951 256.671 120.514 260.25C120.294 260.8 119.838 262.769 119.502 264.625C118.904 267.926 119.328 272.685 120.493 275.75C121.411 278.164 123.32 281.829 124.124 282.719C124.606 283.252 125 283.893 125 284.143C125 284.748 127.757 287.3 129.561 288.366C130.352 288.833 131 289.377 131 289.574C131 290.227 128.113 292 127.048 292C126.471 292 126 292.225 126 292.5C126 292.775 125.451 293 124.779 293C124.108 293 123.42 293.225 123.25 293.5C123.08 293.775 121.548 294.003 119.845 294.007C118.143 294.011 115.85 294.357 114.75 294.775C113.65 295.193 112.364 295.664 111.893 295.821C111.422 295.978 110.748 296.758 110.396 297.553C110.044 298.349 109.586 299 109.378 299C109.17 299 109.016 300.181 109.036 301.625C109.075 304.439 110.137 306.804 111.766 307.705C112.307 308.005 112.894 308.448 113.07 308.69C113.501 309.284 124.356 309.112 125.514 308.492C126.02 308.221 127.011 308 127.717 308C128.422 308 129 307.775 129 307.5C129 307.225 129.675 307 130.5 307C131.325 307 132 306.775 132 306.5C132 306.225 132.45 306 133 306C133.55 306 134 305.775 134 305.5C134 305.225 134.431 305 134.958 305C135.485 305 136.009 304.721 136.123 304.379C136.274 303.928 136.558 303.986 137.165 304.594C137.624 305.053 138 305.613 138.001 305.839C138.002 306.065 138.676 307.037 139.5 308C140.323 308.962 140.998 309.938 140.999 310.168C141 310.751 146.522 316 147.133 316C147.408 316 147.996 316.399 148.441 316.886C148.886 317.374 150.825 318.522 152.75 319.439C154.675 320.355 156.64 321.306 157.118 321.552C157.595 321.798 158.507 322 159.143 322C159.779 322 160.526 322.226 160.803 322.503C161.081 322.781 163.827 323.039 166.906 323.077C172.204 323.143 172.579 323.216 173.886 324.448C174.646 325.164 175.882 326.069 176.633 326.459C177.385 326.849 178 327.356 178 327.584C178 327.813 178.45 328 179 328C179.666 328 180 328.333 180 329C180 329.55 180.225 330 180.5 330C180.775 330 181 330.675 181 331.5C181 332.325 181.225 333 181.5 333C181.775 333 182 333.661 182 334.47C182 335.279 182.225 336.08 182.5 336.25C182.775 336.42 183 336.999 183 337.536C183 338.074 183.203 338.904 183.451 339.382C183.699 339.859 184.171 341.262 184.5 342.5C184.828 343.737 185.3 345.14 185.548 345.618C185.797 346.095 186 346.926 186 347.463C186 348.001 186.225 348.58 186.5 348.75C186.775 348.92 187 349.72 187 350.529C187 351.338 187.225 352 187.5 352C187.775 352 188 352.675 188 353.5C188 354.325 188.225 355 188.5 355C188.775 355 189 355.675 189 356.5C189 357.325 189.225 358 189.5 358C189.775 358 190 358.661 190 359.47C190 360.279 190.225 361.08 190.5 361.25C190.775 361.42 191 361.999 191 362.536C191 363.074 191.202 363.904 191.448 364.382C191.695 364.859 192.393 366.937 193 369C193.606 371.062 194.304 373.14 194.551 373.618C194.798 374.095 195 374.926 195 375.463C195 376.001 195.225 376.58 195.5 376.75C195.775 376.92 196 377.72 196 378.529C196 379.338 196.225 380 196.5 380C196.775 380 197 380.45 197 381C197 381.55 197.225 382 197.5 382C197.775 382 198 382.343 198 382.763C198 383.685 201.715 387.422 203.794 388.591C207.671 390.771 209.28 390.985 221.875 390.992C229.63 390.997 234 390.82 234 390.5C234 390.225 234.455 390 235.01 390C237.558 390 243 384.575 243 382.035C243 381.465 243.225 381 243.5 381C243.785 381 244 379.5 244 377.5C244 375.5 243.785 374 243.5 374C243.225 374 243 373.226 243 372.279C243 371.333 242.775 370.42 242.5 370.25C242.225 370.08 242 369.279 242 368.47C242 367.661 241.775 367 241.5 367C241.225 367 241 366.338 241 365.529C241 364.72 240.775 363.92 240.5 363.75C240.225 363.58 240 362.667 240 361.72C240 360.774 239.775 360 239.5 360C239.225 360 239 359.434 239 358.743C239 358.052 238.802 357.095 238.561 356.618C237.775 355.062 237 352.208 237 350.871C237 349.64 237.11 349.58 238.875 349.859C239.906 350.022 240.825 350.345 240.916 350.577C241.008 350.81 241.514 351 242.041 351C242.569 351 243 351.225 243 351.5C243 351.775 243.295 352 243.655 352C244.016 352 244.759 352.394 245.306 352.875C247.183 354.525 251.807 357 253.015 357C253.557 357 254 357.225 254 357.5C254 357.775 254.675 358 255.5 358C256.325 358 257 358.203 257 358.451C257 359.065 261.344 359.582 266.5 359.582C271.655 359.582 276 359.065 276 358.451C276 358.203 276.453 358 277.008 358C278.416 358 282 356.835 282 356.378C282 356.17 282.45 356 283 356C283.55 356 284 355.801 284 355.558C284 355.315 284.394 354.992 284.875 354.839C286.715 354.255 288.821 352.611 292.716 348.716C296.611 344.821 298.255 342.715 298.839 340.875C298.992 340.394 299.315 340 299.558 340C299.801 340 300 339.55 300 339C300 338.45 300.176 338 300.391 338C300.606 338 301.07 336.931 301.424 335.625C301.777 334.319 302.276 332.859 302.533 332.382C302.79 331.904 303.003 330.779 303.007 329.882C303.017 327.587 303.961 326.002 306.035 324.791C309.776 322.609 311 321.771 311 321.392C311 321.176 311.319 321 311.708 321C312.446 321 321.999 311.86 322.001 311.153C322.002 310.931 322.676 309.962 323.5 309C324.323 308.037 324.998 306.969 324.999 306.625C324.999 306.281 325.225 306 325.5 306C325.775 306 326 305.55 326 305C326 304.45 326.168 303.998 326.375 303.996C326.824 303.991 328 301.57 328 300.65C328 300.292 328.225 300 328.5 300C328.775 300 329 299.563 329 299.029C329 298.495 329.225 297.92 329.5 297.75C329.775 297.58 330 296.905 330 296.25C330 295.595 330.225 294.92 330.5 294.75C330.775 294.58 331 293.792 331 293C331 292.207 331.225 291.42 331.5 291.25C332.218 290.806 332.118 283.694 331.375 282.387C330.421 280.711 329.65 280 328.785 280C328.353 280 328 279.775 328 279.5C328 278.807 322.679 278.87 321.342 279.578C319.679 280.459 318.001 282.617 318 283.875C318 284.493 317.775 285 317.5 285C317.225 285 317 285.886 317 286.97C317 288.054 316.775 289.08 316.5 289.25C316.225 289.42 316 289.999 316 290.536C316 291.074 315.803 291.904 315.562 292.382C315.322 292.859 314.686 294.15 314.15 295.25C312.974 297.661 311.849 299.659 311.476 300C311.325 300.137 310.658 301.037 309.994 302C308.578 304.05 303.571 309 302.912 309C302.662 309 301.975 309.45 301.385 310C300.794 310.55 300.016 311 299.655 311C299.295 311 299 311.225 299 311.5C299 311.775 298.55 312 298 312C297.45 312 297 312.225 297 312.5C297 312.775 296.563 313 296.029 313C295.495 313 294.92 313.225 294.75 313.5C294.58 313.775 293.892 314 293.22 314C292.549 314 292 314.225 292 314.5C292 314.775 291.257 315 290.35 315C289.442 315 288.462 315.237 288.173 315.527C287.831 315.868 285.195 315.976 280.698 315.832C273.418 315.6 270.176 315.19 269.716 314.445C269.564 314.2 268.892 314 268.22 314C267.549 314 267 313.775 267 313.5C267 313.225 266.707 313 266.349 313C265.43 313 263.008 311.824 263.004 311.375C263.002 311.168 262.574 311 262.053 311C261.533 311 260.993 310.704 260.855 310.343C260.506 309.435 261.019 307 261.558 307C261.801 307 262 306.563 262 306.029C262 305.495 262.225 304.92 262.5 304.75C262.775 304.58 263 303.181 263 301.642C263 298.433 261.637 296.14 258.927 294.788C257.179 293.916 253 293.713 253 294.5C253 294.775 252.652 295 252.227 295C251.408 295 249 297.155 249 297.888C249 298.127 248.309 299.749 247.464 301.493C245.05 306.476 237.975 313 234.985 313C234.443 313 234 313.225 234 313.5C234 313.775 233.338 314 232.529 314C231.72 314 230.92 314.225 230.75 314.5C230.58 314.775 228.542 315 226.22 315C223.74 315 222 314.794 222 314.5C222 314.225 221.226 314 220.279 314C219.333 314 218.42 313.775 218.25 313.5C218.08 313.225 217.504 313 216.97 313C216.436 313 216 312.775 216 312.5C216 312.225 215.55 312 215 312C214.45 312 213.998 311.831 213.996 311.625C213.988 310.831 211.179 310 208.505 310C205.945 310 205.523 310.168 203.5 312C202.284 313.1 201 314 200.645 314C200.29 314 200 314.225 200 314.5C200 314.775 199.55 315 199 315C198.45 315 198 315.225 198 315.5C198 315.8 196 316 193 316C190 316 188 315.8 188 315.5C188 315.225 187.55 315 187 315C186.45 315 186 314.775 186 314.5C186 314.225 185.697 314 185.326 314C184.956 314 183.234 312.65 181.5 311L178.347 308H170.673C165.891 308 163 307.811 163 307.5C163 307.225 162.325 307 161.5 307C160.675 307 160 306.775 160 306.5C160 306.225 159.55 306 159 306C158.45 306 158 305.828 158 305.618C158 305.408 157.142 304.706 156.093 304.057C155.044 303.409 153.64 302.062 152.973 301.064C152.305 300.066 151.644 299.137 151.504 299C150.731 298.241 149 294.232 149 293.202C149 292.541 148.775 292 148.5 292C148.206 292 148 290.247 148 287.743C148 281.515 146.765 279.799 140.625 277.49C139.731 277.153 139 276.681 139 276.439C139 276.197 138.675 276 138.278 276C137.881 276 137.158 275.325 136.67 274.5C136.183 273.675 135.608 273 135.392 273C135.176 273 135 272.434 135 271.743C135 271.052 134.726 270.048 134.392 269.513C133.915 268.749 133.915 268.178 134.392 266.859C134.726 265.935 135 264.837 135 264.419C135 263.383 139.206 259 140.2 259C140.64 259 141 258.775 141 258.5C141 258.2 143 258 146 258C149 258 151 257.8 151 257.5C151 257.225 151.367 257 151.817 257C152.916 257 154.667 254.884 155.452 252.607C156.533 249.473 157.227 248 157.622 248C157.83 248 158 247.656 158 247.237C158 245.384 165.081 240 167.517 240C168.025 240 168.58 239.775 168.75 239.5C169.174 238.814 175.131 238.868 176.851 239.573C177.62 239.888 179.642 240.788 181.343 241.573C184.455 243.008 187.706 243.408 189.382 242.561C191.594 241.443 194.184 241 198.5 241C202.815 241 205.405 241.443 207.618 242.561C208.095 242.802 208.827 243 209.243 243C209.659 243 210 243.225 210 243.5C210 243.775 210.353 244 210.785 244C212.605 244 213.483 246.053 212.5 248.007C212.225 248.553 211.775 249.447 211.5 249.993C211.225 250.539 211 251.567 211 252.276C211 252.985 210.771 253.993 210.492 254.515C209.459 256.445 211.625 260.831 214.373 262.375C215.573 263.048 221 263.248 221 262.618C221 262.409 221.506 262.015 222.125 261.743C222.743 261.472 223.472 260.743 223.743 260.125C224.015 259.506 224.409 259 224.618 259C224.828 259 225 258.325 225 257.5C225 256.675 225.225 256 225.5 256C225.775 256 226 255.44 226 254.755C226 252.95 229.501 248.853 232.035 247.694C235.515 246.102 240 245.43 240 246.5C240 246.775 240.675 247 241.5 247C242.325 247 243 247.225 243 247.5C243 247.775 243.36 248 243.799 248C244.745 248 249 252.36 249 253.329C249 253.698 249.225 254 249.5 254C249.775 254 250 254.353 250 254.785C250 256.6 252.784 258 256.395 258C258.99 258 259.491 257.824 261.031 256.375C263.349 254.193 264.298 251.468 263.482 249.338C262.121 245.787 261.739 245 261.378 245C261.17 245 261 244.637 261 244.193C261 243.75 259.34 241.728 257.313 239.7C253.743 236.13 248.901 233 246.949 233C246.427 233 246 232.797 246 232.55C246 231.484 235.922 230.99 232 231.864C229.573 232.405 228.618 232.723 226.167 233.807C224.506 234.541 222.856 234.231 221.433 232.917C220.589 232.137 219.11 231.25 216.013 229.666C214.005 228.639 212.721 228.203 206.5 226.432C204.743 225.932 193.374 226.134 187.875 226.763C185.928 226.986 185 226.916 185 226.546C185 226.246 184.325 226 183.5 226C182.675 226 182 225.798 182 225.552C182 224.537 167.876 223.563 166.5 224.483ZM423 234.5C423 234.775 423.347 235 423.772 235C424.773 235 427 237.227 427 238.227C427 238.652 427.225 239 427.5 239C427.775 239 428 240.125 428 241.5C428 242.875 427.775 244 427.5 244C427.225 244 427 244.347 427 244.772C427 245.773 424.773 248 423.772 248C423.347 248 423 248.225 423 248.5C423 248.775 421.875 249 420.5 249C419.125 249 418 248.775 418 248.5C418 248.225 417.652 248 417.227 248C416.227 248 414 245.773 414 244.772C414 244.347 413.775 244 413.5 244C413.225 244 413 242.875 413 241.5C413 240.125 413.225 239 413.5 239C413.775 239 414 238.652 414 238.227C414 237.227 416.227 235 417.227 235C417.652 235 418 234.775 418 234.5C418 234.225 419.125 234 420.5 234C421.875 234 423 234.225 423 234.5ZM371.39 246.969C369.117 248.105 368 249.174 368 250.214C368 250.646 367.796 251 367.547 251C367.297 251 366.957 254.206 366.791 258.125C366.405 267.208 365.704 276.213 365.01 281C364.711 283.062 364.34 285.931 364.187 287.375C364.033 288.819 363.703 290 363.453 290C363.204 290 363 290.886 363 291.97C363 293.054 362.775 294.08 362.5 294.25C362.225 294.42 362 295.333 362 296.279C362 297.226 361.775 298 361.5 298C361.225 298 361 298.675 361 299.5C361 300.325 360.775 301 360.5 301C360.225 301 360 301.675 360 302.5C360 303.325 359.775 304 359.5 304C359.225 304 359 304.549 359 305.22C359 305.892 358.775 306.58 358.5 306.75C358.225 306.92 358 307.495 358 308.029C358 308.563 357.775 309 357.5 309C357.225 309 357.002 309.281 357.004 309.625C357.008 310.226 353.049 318.487 352.512 319C352.368 319.137 352.004 319.7 351.703 320.25C350.328 322.763 349.688 323.769 348.875 324.694C348.394 325.241 348 325.934 348 326.234C348 326.534 347.55 327.103 347 327.5C346.45 327.896 346 328.475 346 328.786C346 329.097 345.325 330.058 344.5 330.921C343.675 331.784 343 332.684 343 332.921C343 333.158 342.377 334.004 341.615 334.801C340.854 335.598 339.841 336.812 339.363 337.5C337.957 339.527 329.653 348.353 324.079 353.747C313.833 363.66 308.237 369.336 307.53 370.532C306.17 372.834 305 375.452 305 376.196C305 376.606 304.775 377.08 304.5 377.25C304.225 377.42 304 378.333 304 379.279C304 380.226 303.808 381 303.574 381C303.076 381 302.32 388.309 302.332 393C302.346 398.081 303.102 406 303.573 406C303.808 406 304 406.345 304 406.767C304 407.865 305.496 410 306.266 410C306.624 410 307.003 410.26 307.109 410.578C307.225 410.924 308.492 411.167 310.276 411.183C312.626 411.205 313.642 410.952 315.119 409.98C316.146 409.303 316.99 408.356 316.994 407.875C316.997 407.394 317.256 407 317.569 407C317.985 407 318.037 405.409 317.76 401.125C317.161 391.824 317.553 383 318.567 383C318.805 383 319 382.557 319 382.015C319 379.631 321.854 376.181 328.524 370.504C332.285 367.303 342.064 357.502 343.908 355.086C344.606 354.171 346.712 351.841 348.589 349.908C350.465 347.975 352 346.185 352 345.93C352 345.675 352.787 344.679 353.75 343.716C354.712 342.754 355.5 341.759 355.5 341.506C355.5 341.252 356.062 340.483 356.75 339.795C357.437 339.108 358 338.366 358.001 338.147C358.002 337.929 358.676 336.962 359.5 336C360.323 335.037 360.998 333.969 360.999 333.625C360.999 333.281 361.187 333 361.415 333C361.644 333 362.15 332.381 362.539 331.625C362.929 330.868 363.361 330.137 363.499 330C363.993 329.507 365.567 326.733 365.839 325.875C365.992 325.394 366.315 325 366.558 325C366.801 325 367 324.55 367 324C367 323.45 367.225 323 367.5 323C367.775 323 368 322.55 368 322C368 321.45 368.225 321 368.5 321C368.775 321 369 320.55 369 320C369 319.45 369.225 319 369.5 319C369.775 319 370 318.684 370 318.297C370 317.91 370.482 316.617 371.071 315.422C372.996 311.517 376 302.768 376 301.065C376 300.479 376.225 300 376.5 300C376.775 300 377 299.1 377 298C377 296.9 377.202 296 377.449 296C377.697 296 378.026 295.043 378.181 293.875C378.336 292.706 378.706 290.287 379.003 288.5C380.285 280.799 381.261 270.624 381.787 259.484C382.083 253.227 382.026 252.546 381.033 250.432C380.393 249.07 379.412 247.892 378.604 247.515C377.859 247.167 376.859 246.684 376.382 246.441C375.063 245.771 373.446 245.942 371.39 246.969ZM252 322.5C252 322.775 252.295 323 252.655 323C253.016 323 253.794 323.45 254.385 324C254.975 324.55 255.805 325 256.229 325C256.653 325 257 325.225 257 325.5C257 325.775 257.45 326 258 326C258.55 326 259 326.184 259 326.409C259 326.635 260.125 327.125 261.5 327.5C262.875 327.874 264 328.34 264 328.535C264 328.879 265.581 329.232 269.75 329.82C270.85 329.975 271.964 330.304 272.225 330.551C272.486 330.798 275.936 331 279.891 331C285.467 331 287.018 331.14 286.792 331.625C286.631 331.969 286.362 332.644 286.192 333.125C286.022 333.606 285.684 334 285.441 334C285.199 334 285 334.342 285 334.761C285 336.599 277 343 274.702 343C274.316 343 274 343.225 274 343.5C274 343.775 273.145 344 272.1 344C271.055 344 269.953 344.247 269.651 344.549C268.88 345.319 259.78 344.358 259.217 343.447C259.065 343.201 258.504 343 257.97 343C257.436 343 257 342.775 257 342.5C257 342.225 256.653 342 256.229 342C255.805 342 254.975 341.55 254.385 341C253.794 340.45 253.016 340 252.655 340C252.295 340 252 339.801 252 339.558C252 339.068 247.429 336.727 244.884 335.913C243.219 335.38 239.75 334.671 236.372 334.172C235.339 334.019 234.369 333.693 234.217 333.447C234.065 333.201 233.6 333 233.185 333C232.207 333 231 331.786 231 330.803C231 329.764 232.562 329 234.687 329C235.652 329 236.58 328.775 236.75 328.5C236.92 328.225 237.595 328 238.25 328C238.905 328 239.58 327.775 239.75 327.5C239.92 327.225 240.495 327 241.029 327C241.563 327 242 326.775 242 326.5C242 326.225 242.34 326 242.757 326C243.451 326 245.405 325.096 246 324.499C246.137 324.361 246.868 323.929 247.625 323.539C248.381 323.15 249 322.644 249 322.415C249 322.187 249.675 322 250.5 322C251.325 322 252 322.225 252 322.5ZM213.827 328.16C214.539 328.779 215 329.734 215 330.59C215 331.365 215.225 332 215.5 332C215.775 332 216 332.661 216 333.47C216 334.279 216.225 335.08 216.5 335.25C216.775 335.42 217 336.207 217 337C217 337.792 217.225 338.58 217.5 338.75C217.775 338.92 218 339.72 218 340.529C218 341.338 218.225 342 218.5 342C218.775 342 219 342.49 219 343.089C219 344.24 219.824 347.159 220.561 348.618C220.802 349.095 221 350.038 221 350.713C221 351.388 221.225 352.08 221.5 352.25C221.775 352.42 222 353.207 222 354C222 354.792 222.225 355.58 222.5 355.75C222.775 355.92 223 356.72 223 357.529C223 358.338 223.2 359 223.445 359C223.865 359 224.013 359.561 224.79 364.125C224.965 365.156 225.31 366 225.554 366C225.799 366 226 366.661 226 367.47C226 368.279 226.225 369.08 226.5 369.25C226.775 369.42 227 370.207 227 371C227 371.792 227.225 372.58 227.5 372.75C227.775 372.92 228 373.72 228 374.529V376L219.625 375.996L211.25 375.992L210.625 374.646C210.281 373.906 210 372.909 210 372.43C210 371.951 209.775 371.42 209.5 371.25C209.225 371.08 209 370.405 209 369.75C209 369.095 208.775 368.42 208.5 368.25C208.225 368.08 208 367.279 208 366.47C208 365.661 207.775 365 207.5 365C207.225 365 207 364.325 207 363.5C207 362.675 206.775 362 206.5 362C206.225 362 206 361.325 206 360.5C206 359.675 205.775 359 205.5 359C205.225 359 205 358.434 205 357.743C205 357.052 204.798 356.095 204.551 355.618C204.304 355.14 203.606 353.062 203 351C202.393 348.937 201.695 346.859 201.448 346.382C201.202 345.904 201 344.948 201 344.257C201 343.565 200.775 343 200.5 343C200.225 343 200 342.325 200 341.5C200 340.675 199.775 340 199.5 340C199.225 340 199 339.325 199 338.5C199 337.675 198.775 337 198.5 337C198.225 337 198 336.338 198 335.529C198 334.72 197.775 333.92 197.5 333.75C197.225 333.58 197 332.892 197 332.22C197 331.197 197.243 331 198.5 331C199.325 331 200 330.775 200 330.5C200 330.225 200.675 330 201.5 330C202.325 330 203 329.775 203 329.5C203 329.225 203.471 329 204.048 329C204.624 329 205.693 328.582 206.423 328.071C207.153 327.56 208.087 327.016 208.5 326.862C209.757 326.391 212.585 327.081 213.827 328.16Z" fill="black"/>
</svg>
